<?xml version="1.0" encoding="UTF-8"?>
<svg id="Layer_1" xmlns="http://www.w3.org/2000/svg" version="1.1" viewBox="0 0 841.89 595.28">
  <!-- Generator: Adobe Illustrator 29.7.1, SVG Export Plug-In . SVG Version: 2.1.1 Build 8)  -->
  <defs>
    <style>
      .st0 {
        fill: #fdf7fa;
      }

      .st0, .st1, .st2 {
        stroke: #231f20;
        stroke-miterlimit: 10;
        stroke-width: 3px;
      }

      .st1 {
        fill: #a9dcd9;
      }

      .st2 {
        fill: #d57ab1;
      }
    </style>
  </defs>
  <path class="st1" d="M366.7,476.82l-5.94,12.71c-26.34,56.37-91.47,79.14-145.5,50.86-54.01-28.28-76.45-96.89-50.11-153.26l68.68-146.92c2.41-5.14,48.14,13.61,102.15,41.87,3.53,1.85,7.01,3.69,10.42,5.53-26.78,64.06-17.14,136.17,20.29,189.22Z"/>
  <path class="st0" d="M507.67,175.17c-64.98.74-127.2,39.18-157.97,105.02-1.16,2.47-2.24,4.93-3.29,7.42-3.41-1.84-6.89-3.68-10.42-5.53-54.01-28.27-99.74-47.02-102.15-41.87l77.38-165.55c26.34-56.37,91.49-79.14,145.5-50.86,53.43,27.98,75.95,95.37,50.96,151.37Z"/>
  <path class="st2" d="M669.24,447.49c-42.72,91.41-146.11,130.03-233.22,88.22l157.96-337.95c84.27,47.92,118,158.29,75.26,249.73Z"/>
  <path class="st2" d="M581.85,191.46l-157.93,337.88c-23.11-13.35-42.37-31.43-57.22-52.52-37.43-53.05-47.08-125.16-20.29-189.22,1.05-2.48,2.13-4.95,3.29-7.42,30.78-65.84,93-104.28,157.97-105.02,24.86-.29,50.12,4.95,74.18,16.29Z"/>
</svg>